<svg width="695" height="664" viewBox="0 0 695 664" fill="none" xmlns="http://www.w3.org/2000/svg">
<ellipse cx="344.5" cy="332" rx="344.5" ry="332" fill="#377375"/>
<line x1="110.477" y1="570.034" x2="110.477" y2="0.0342407" stroke="black" stroke-width="10"/>
<line x1="115" y1="565" x2="695" y2="565" stroke="black" stroke-width="10"/>
<rect x="115" y="102" width="477" height="458" fill="#A9899E"/>
<ellipse cx="272" cy="410.5" rx="153" ry="140.5" fill="#A4BDBE"/>
<path d="M282.888 469.768C277.704 469.768 273.512 468.2 270.312 465.064C267.176 461.864 265.608 457.64 265.608 452.392V418.312C265.608 413.064 267.176 408.872 270.312 405.736C273.512 402.6 277.704 401.032 282.888 401.032C288.136 401.032 292.328 402.6 295.464 405.736C298.664 408.872 300.264 413.064 300.264 418.312V419.848C300.264 420.488 299.944 420.808 299.304 420.808L292.008 421.192C291.368 421.192 291.048 420.872 291.048 420.232V417.736C291.048 415.112 290.28 413 288.744 411.4C287.272 409.8 285.32 409 282.888 409C280.456 409 278.504 409.8 277.032 411.4C275.56 413 274.824 415.112 274.824 417.736V453.064C274.824 455.688 275.56 457.8 277.032 459.4C278.504 461 280.456 461.8 282.888 461.8C285.32 461.8 287.272 461 288.744 459.4C290.28 457.8 291.048 455.688 291.048 453.064V450.568C291.048 449.928 291.368 449.608 292.008 449.608L299.304 449.992C299.944 449.992 300.264 450.312 300.264 450.952V452.392C300.264 457.64 298.664 461.864 295.464 465.064C292.328 468.2 288.136 469.768 282.888 469.768ZM356.918 408.808C356.918 409.448 356.598 409.768 355.958 409.768H334.358C334.102 409.768 333.974 409.896 333.974 410.152V430.984C333.974 431.24 334.102 431.368 334.358 431.368H347.606C348.246 431.368 348.566 431.688 348.566 432.328V438.376C348.566 439.016 348.246 439.336 347.606 439.336H334.358C334.102 439.336 333.974 439.464 333.974 439.72V460.648C333.974 460.904 334.102 461.032 334.358 461.032H355.958C356.598 461.032 356.918 461.352 356.918 461.992V468.04C356.918 468.68 356.598 469 355.958 469H325.718C325.078 469 324.758 468.68 324.758 468.04V402.76C324.758 402.12 325.078 401.8 325.718 401.8H355.958C356.598 401.8 356.918 402.12 356.918 402.76V408.808ZM398.644 401.704C403.572 401.704 407.54 403.496 410.548 407.08C413.62 410.6 415.156 415.24 415.156 421C415.156 426.632 413.684 431.176 410.74 434.632C407.796 438.088 403.924 439.816 399.124 439.816H390.1C389.844 439.816 389.716 439.944 389.716 440.2V468.04C389.716 468.68 389.396 469 388.756 469H381.46C380.82 469 380.5 468.68 380.5 468.04V402.664C380.5 402.024 380.82 401.704 381.46 401.704H398.644ZM397.204 432.424C399.828 432.424 401.94 431.432 403.54 429.448C405.14 427.4 405.94 424.648 405.94 421.192C405.94 417.672 405.14 414.888 403.54 412.84C401.94 410.728 399.828 409.672 397.204 409.672H390.1C389.844 409.672 389.716 409.8 389.716 410.056V432.04C389.716 432.296 389.844 432.424 390.1 432.424H397.204ZM470.468 408.808C470.468 409.448 470.148 409.768 469.508 409.768H447.908C447.652 409.768 447.524 409.896 447.524 410.152V430.984C447.524 431.24 447.652 431.368 447.908 431.368H461.156C461.796 431.368 462.116 431.688 462.116 432.328V438.376C462.116 439.016 461.796 439.336 461.156 439.336H447.908C447.652 439.336 447.524 439.464 447.524 439.72V460.648C447.524 460.904 447.652 461.032 447.908 461.032H469.508C470.148 461.032 470.468 461.352 470.468 461.992V468.04C470.468 468.68 470.148 469 469.508 469H439.268C438.628 469 438.308 468.68 438.308 468.04V402.76C438.308 402.12 438.628 401.8 439.268 401.8H469.508C470.148 401.8 470.468 402.12 470.468 402.76V408.808ZM495.106 469C494.466 469 494.146 468.68 494.146 468.04V402.76C494.146 402.12 494.466 401.8 495.106 401.8H510.85C516.162 401.8 520.386 403.432 523.522 406.696C526.658 409.96 528.226 414.376 528.226 419.944V450.856C528.226 456.424 526.658 460.84 523.522 464.104C520.386 467.368 516.162 469 510.85 469H495.106ZM503.362 460.648C503.362 460.904 503.49 461.032 503.746 461.032L510.754 460.936C513.186 460.936 515.138 460.008 516.61 458.152C518.082 456.232 518.85 453.64 518.914 450.376V420.424C518.914 417.16 518.178 414.568 516.706 412.648C515.234 410.728 513.25 409.768 510.754 409.768H503.746C503.49 409.768 503.362 409.896 503.362 410.152V460.648ZM577.787 469C577.211 469 576.859 468.712 576.731 468.136L574.619 457.096C574.619 456.968 574.555 456.872 574.427 456.808C574.363 456.744 574.267 456.712 574.139 456.712H558.491C558.363 456.712 558.235 456.744 558.107 456.808C558.043 456.872 558.011 456.968 558.011 457.096L555.995 468.136C555.931 468.712 555.579 469 554.939 469H547.643C547.323 469 547.067 468.904 546.875 468.712C546.747 468.52 546.715 468.264 546.779 467.944L561.083 402.664C561.211 402.088 561.563 401.8 562.139 401.8H570.683C571.323 401.8 571.675 402.088 571.739 402.664L586.139 467.944V468.136C586.139 468.712 585.851 469 585.275 469H577.787ZM559.643 449.032C559.643 449.288 559.739 449.416 559.931 449.416H572.699C572.891 449.416 572.987 449.288 572.987 449.032L566.459 414.952C566.395 414.824 566.331 414.76 566.267 414.76C566.203 414.76 566.139 414.824 566.075 414.952L559.643 449.032Z" fill="black"/>
<path d="M270.168 528C270.008 528 269.864 527.952 269.736 527.856C269.64 527.728 269.592 527.584 269.592 527.424V494.976C269.592 494.816 269.64 494.688 269.736 494.592C269.864 494.464 270.008 494.4 270.168 494.4H274.584C274.744 494.4 274.872 494.464 274.968 494.592C275.096 494.688 275.16 494.816 275.16 494.976V508.224C275.16 508.352 275.192 508.432 275.256 508.464C275.32 508.464 275.384 508.416 275.448 508.32L282.648 494.832C282.808 494.544 283.048 494.4 283.368 494.4H288.12C288.344 494.4 288.488 494.464 288.552 494.592C288.616 494.72 288.6 494.88 288.504 495.072L281.304 508.56C281.272 508.688 281.256 508.784 281.256 508.848L289.032 527.328C289.064 527.392 289.08 527.488 289.08 527.616C289.08 527.872 288.92 528 288.6 528H283.848C283.496 528 283.272 527.856 283.176 527.568L277.512 513.696C277.48 513.6 277.432 513.568 277.368 513.6C277.304 513.6 277.24 513.632 277.176 513.696L275.256 516.912C275.192 517.04 275.16 517.136 275.16 517.2V527.424C275.16 527.584 275.096 527.728 274.968 527.856C274.872 527.952 274.744 528 274.584 528H270.168ZM307.509 528.384C304.757 528.384 302.533 527.552 300.837 525.888C299.173 524.224 298.341 522.016 298.341 519.264V503.136C298.341 500.384 299.173 498.176 300.837 496.512C302.533 494.848 304.757 494.016 307.509 494.016C310.261 494.016 312.485 494.848 314.181 496.512C315.877 498.176 316.725 500.384 316.725 503.136V519.264C316.725 522.016 315.877 524.224 314.181 525.888C312.485 527.552 310.261 528.384 307.509 528.384ZM307.509 523.584C308.597 523.584 309.477 523.216 310.149 522.48C310.821 521.712 311.157 520.72 311.157 519.504V502.896C311.157 501.68 310.821 500.704 310.149 499.968C309.477 499.2 308.597 498.816 307.509 498.816C306.421 498.816 305.541 499.2 304.869 499.968C304.229 500.704 303.909 501.68 303.909 502.896V519.504C303.909 520.72 304.229 521.712 304.869 522.48C305.541 523.216 306.421 523.584 307.509 523.584ZM329.099 528C328.939 528 328.795 527.952 328.667 527.856C328.571 527.728 328.523 527.584 328.523 527.424V494.976C328.523 494.816 328.571 494.688 328.667 494.592C328.795 494.464 328.939 494.4 329.099 494.4H337.307C340.059 494.4 342.251 495.232 343.883 496.896C345.547 498.56 346.379 500.784 346.379 503.568V518.832C346.379 521.616 345.547 523.84 343.883 525.504C342.251 527.168 340.059 528 337.307 528H329.099ZM334.091 522.96C334.091 523.12 334.171 523.2 334.331 523.2L337.211 523.152C338.267 523.152 339.115 522.736 339.755 521.904C340.427 521.04 340.779 519.904 340.811 518.496V503.904C340.811 502.464 340.475 501.328 339.803 500.496C339.163 499.632 338.283 499.2 337.163 499.2H334.331C334.171 499.2 334.091 499.28 334.091 499.44V522.96ZM398.453 527.28C398.549 527.408 398.597 527.536 398.597 527.664C398.597 527.888 398.437 528 398.117 528H393.365C393.077 528 392.837 527.888 392.645 527.664L391.253 525.792C391.157 525.696 391.045 525.68 390.917 525.744C388.613 527.536 385.973 528.432 382.997 528.432C380.245 528.432 378.069 527.728 376.469 526.32C374.901 524.912 374.117 522.864 374.117 520.176C374.117 518.064 374.597 516.272 375.557 514.8C376.517 513.296 377.829 511.888 379.493 510.576C379.621 510.48 379.637 510.368 379.541 510.24C378.005 508.096 377.013 506.528 376.565 505.536C376.117 504.512 375.893 503.408 375.893 502.224C375.893 499.728 376.629 497.744 378.101 496.272C379.605 494.768 381.589 494.016 384.053 494.016C385.685 494.016 387.141 494.368 388.421 495.072C389.701 495.744 390.709 496.704 391.445 497.952C392.181 499.2 392.549 500.64 392.549 502.272C392.549 504.256 392.037 505.968 391.013 507.408C390.021 508.816 388.661 510.176 386.933 511.488C386.805 511.584 386.789 511.696 386.885 511.824C387.013 512.016 387.621 512.848 388.709 514.32L391.205 517.728C391.269 517.792 391.333 517.824 391.397 517.824C391.461 517.824 391.509 517.792 391.541 517.728C392.341 516.608 393.077 515.392 393.749 514.08C393.941 513.728 394.213 513.648 394.565 513.84L397.829 515.712C398.149 515.936 398.213 516.192 398.021 516.48C396.933 518.56 395.813 520.368 394.661 521.904C394.565 522.032 394.549 522.144 394.613 522.24C395.413 523.232 396.693 524.912 398.453 527.28ZM384.197 499.056C383.365 499.056 382.693 499.376 382.181 500.016C381.701 500.624 381.461 501.424 381.461 502.416C381.461 503.12 381.573 503.76 381.797 504.336C382.053 504.912 382.645 505.872 383.573 507.216C383.669 507.376 383.781 507.408 383.909 507.312C384.901 506.512 385.653 505.712 386.165 504.912C386.709 504.112 386.981 503.248 386.981 502.32C386.981 501.36 386.709 500.576 386.165 499.968C385.653 499.36 384.997 499.056 384.197 499.056ZM383.525 523.632C384.965 523.632 386.437 523.008 387.941 521.76C388.069 521.664 388.085 521.552 387.989 521.424L386.213 519.12L382.901 514.8C382.805 514.672 382.693 514.656 382.565 514.752C380.645 516.352 379.685 518.016 379.685 519.744C379.685 520.864 380.021 521.792 380.693 522.528C381.365 523.264 382.309 523.632 383.525 523.632ZM427.649 528C427.489 528 427.345 527.952 427.217 527.856C427.121 527.728 427.073 527.584 427.073 527.424V494.976C427.073 494.816 427.121 494.688 427.217 494.592C427.345 494.464 427.489 494.4 427.649 494.4H435.857C438.609 494.4 440.801 495.232 442.433 496.896C444.097 498.56 444.929 500.784 444.929 503.568V518.832C444.929 521.616 444.097 523.84 442.433 525.504C440.801 527.168 438.609 528 435.857 528H427.649ZM432.641 522.96C432.641 523.12 432.721 523.2 432.881 523.2L435.761 523.152C436.817 523.152 437.665 522.736 438.305 521.904C438.977 521.04 439.329 519.904 439.361 518.496V503.904C439.361 502.464 439.025 501.328 438.353 500.496C437.713 499.632 436.833 499.2 435.713 499.2H432.881C432.721 499.2 432.641 499.28 432.641 499.44V522.96ZM473.478 498.624C473.478 498.784 473.414 498.928 473.286 499.056C473.19 499.152 473.062 499.2 472.902 499.2H462.534C462.374 499.2 462.294 499.28 462.294 499.44V508.512C462.294 508.672 462.374 508.752 462.534 508.752H468.678C468.838 508.752 468.966 508.816 469.062 508.944C469.19 509.04 469.254 509.168 469.254 509.328V513.024C469.254 513.184 469.19 513.328 469.062 513.456C468.966 513.552 468.838 513.6 468.678 513.6H462.534C462.374 513.6 462.294 513.68 462.294 513.84V522.96C462.294 523.12 462.374 523.2 462.534 523.2H472.902C473.062 523.2 473.19 523.264 473.286 523.392C473.414 523.488 473.478 523.616 473.478 523.776V527.424C473.478 527.584 473.414 527.728 473.286 527.856C473.19 527.952 473.062 528 472.902 528H457.302C457.142 528 456.998 527.952 456.87 527.856C456.774 527.728 456.726 527.584 456.726 527.424V494.976C456.726 494.816 456.774 494.688 456.87 494.592C456.998 494.464 457.142 494.4 457.302 494.4H472.902C473.062 494.4 473.19 494.464 473.286 494.592C473.414 494.688 473.478 494.816 473.478 494.976V498.624ZM492.706 528.384C490.05 528.384 487.906 527.584 486.274 525.984C484.642 524.384 483.826 522.288 483.826 519.696V518.448C483.826 518.288 483.874 518.16 483.97 518.064C484.098 517.936 484.242 517.872 484.402 517.872H488.77C488.93 517.872 489.058 517.936 489.154 518.064C489.282 518.16 489.346 518.288 489.346 518.448V519.408C489.346 520.656 489.65 521.664 490.258 522.432C490.898 523.2 491.714 523.584 492.706 523.584C493.698 523.584 494.514 523.232 495.154 522.528C495.794 521.792 496.114 520.832 496.114 519.648C496.114 518.816 495.938 518.096 495.586 517.488C495.234 516.88 494.738 516.304 494.098 515.76C493.458 515.216 492.434 514.432 491.026 513.408C489.426 512.256 488.13 511.232 487.138 510.336C486.178 509.44 485.362 508.368 484.69 507.12C484.05 505.84 483.73 504.368 483.73 502.704C483.73 500.048 484.53 497.936 486.13 496.368C487.73 494.8 489.842 494.016 492.466 494.016C495.122 494.016 497.266 494.848 498.898 496.512C500.53 498.144 501.346 500.32 501.346 503.04V504.192C501.346 504.352 501.282 504.496 501.154 504.624C501.058 504.72 500.93 504.768 500.77 504.768H496.45C496.29 504.768 496.146 504.72 496.018 504.624C495.922 504.496 495.874 504.352 495.874 504.192V502.944C495.874 501.696 495.554 500.704 494.914 499.968C494.306 499.2 493.49 498.816 492.466 498.816C491.506 498.816 490.722 499.168 490.114 499.872C489.506 500.544 489.202 501.488 489.202 502.704C489.202 503.856 489.522 504.832 490.162 505.632C490.834 506.432 492.13 507.536 494.05 508.944C496.002 510.384 497.474 511.568 498.466 512.496C499.458 513.392 500.226 514.384 500.77 515.472C501.314 516.56 501.586 517.856 501.586 519.36C501.586 522.08 500.77 524.272 499.138 525.936C497.506 527.568 495.362 528.384 492.706 528.384ZM513.374 528C513.214 528 513.07 527.952 512.942 527.856C512.846 527.728 512.798 527.584 512.798 527.424V494.976C512.798 494.816 512.846 494.688 512.942 494.592C513.07 494.464 513.214 494.4 513.374 494.4H517.79C517.95 494.4 518.078 494.464 518.174 494.592C518.302 494.688 518.366 494.816 518.366 494.976V527.424C518.366 527.584 518.302 527.728 518.174 527.856C518.078 527.952 517.95 528 517.79 528H513.374ZM539.181 528.384C536.461 528.384 534.269 527.6 532.605 526.032C530.973 524.432 530.157 522.32 530.157 519.696V502.704C530.157 500.08 530.973 497.984 532.605 496.416C534.269 494.816 536.461 494.016 539.181 494.016C541.901 494.016 544.093 494.816 545.757 496.416C547.453 497.984 548.301 500.096 548.301 502.752V504.624C548.301 504.784 548.237 504.928 548.109 505.056C548.013 505.152 547.885 505.2 547.725 505.2H543.309C543.149 505.2 543.005 505.152 542.877 505.056C542.781 504.928 542.733 504.784 542.733 504.624V502.656C542.733 501.504 542.397 500.576 541.725 499.872C541.085 499.168 540.237 498.816 539.181 498.816C538.125 498.816 537.277 499.168 536.637 499.872C535.997 500.576 535.677 501.504 535.677 502.656V519.744C535.677 520.896 535.997 521.824 536.637 522.528C537.277 523.232 538.125 523.584 539.181 523.584C540.237 523.584 541.085 523.232 541.725 522.528C542.397 521.824 542.733 520.896 542.733 519.744V515.136C542.733 514.976 542.653 514.896 542.493 514.896H539.565C539.405 514.896 539.261 514.848 539.133 514.752C539.037 514.624 538.989 514.48 538.989 514.32V510.816C538.989 510.656 539.037 510.528 539.133 510.432C539.261 510.304 539.405 510.24 539.565 510.24H547.725C547.885 510.24 548.013 510.304 548.109 510.432C548.237 510.528 548.301 510.656 548.301 510.816V519.696C548.301 522.32 547.453 524.432 545.757 526.032C544.093 527.6 541.901 528.384 539.181 528.384ZM573.737 494.976C573.737 494.816 573.785 494.688 573.881 494.592C574.009 494.464 574.153 494.4 574.313 494.4H578.681C578.841 494.4 578.969 494.464 579.065 494.592C579.193 494.688 579.257 494.816 579.257 494.976V527.424C579.257 527.584 579.193 527.728 579.065 527.856C578.969 527.952 578.841 528 578.681 528H573.641C573.321 528 573.113 527.84 573.017 527.52L565.865 507.168C565.833 507.072 565.769 507.04 565.673 507.072C565.609 507.072 565.577 507.12 565.577 507.216L565.625 527.424C565.625 527.584 565.561 527.728 565.433 527.856C565.337 527.952 565.209 528 565.049 528H560.681C560.521 528 560.377 527.952 560.249 527.856C560.153 527.728 560.105 527.584 560.105 527.424V494.976C560.105 494.816 560.153 494.688 560.249 494.592C560.377 494.464 560.521 494.4 560.681 494.4H565.625C565.945 494.4 566.153 494.56 566.249 494.88L573.449 515.088C573.481 515.184 573.529 515.232 573.593 515.232C573.689 515.2 573.737 515.136 573.737 515.04V494.976Z" fill="black"/>
</svg>
